<svg width="210" height="16" viewBox="0 0 210 16" fill="none" xmlns="http://www.w3.org/2000/svg">
<path d="M6.35236 7.04C7.25903 7.04 7.71236 6.58667 7.71236 5.68V3.6C7.71236 2.69333 7.25903 2.24 6.35236 2.24H1.79236V7.04H6.35236ZM1.79236 8.48V11.76C1.79236 11.92 1.71236 12 1.55236 12H0.512363C0.352363 12 0.272363 11.92 0.272363 11.76V1.04C0.272363 0.879999 0.352363 0.799999 0.512363 0.799999H6.35236C8.27236 0.799999 9.23236 1.73333 9.23236 3.6V5.68C9.23236 7.54667 8.27236 8.48 6.35236 8.48H1.79236ZM16.9599 7.2V6.16C16.9599 5.79733 16.8479 5.50933 16.6239 5.296C16.4105 5.072 16.1225 4.96 15.7599 4.96H13.8399C13.4772 4.96 13.1839 5.072 12.9599 5.296C12.7465 5.50933 12.6399 5.79733 12.6399 6.16V7.2H16.9599ZM12.6399 8.48V9.68C12.6399 10.0427 12.7465 10.336 12.9599 10.56C13.1839 10.7733 13.4772 10.88 13.8399 10.88H15.7599C16.1225 10.88 16.4105 10.7733 16.6239 10.56C16.8479 10.336 16.9599 10.0427 16.9599 9.68V9.6C16.9599 9.44 17.0399 9.36 17.1999 9.36H18.0799C18.2399 9.36 18.3199 9.44 18.3199 9.6V9.68C18.3199 10.48 18.1012 11.0933 17.6639 11.52C17.2372 11.9467 16.6025 12.16 15.7599 12.16H13.8399C12.9972 12.16 12.3572 11.9467 11.9199 11.52C11.4932 11.0933 11.2799 10.48 11.2799 9.68V6.16C11.2799 5.36 11.4932 4.74667 11.9199 4.32C12.3572 3.89333 12.9972 3.68 13.8399 3.68H15.7599C16.6025 3.68 17.2372 3.89333 17.6639 4.32C18.1012 4.74667 18.3199 5.36 18.3199 6.16V8.24C18.3199 8.4 18.2399 8.48 18.0799 8.48H12.6399ZM25.1611 10.24L28.0411 4.08C28.0838 3.99467 28.1318 3.936 28.1851 3.904C28.2491 3.86133 28.3611 3.84 28.5211 3.84H29.4811C29.6411 3.84 29.7211 3.92 29.7211 4.08V11.76C29.7211 11.92 29.6411 12 29.4811 12H28.6011C28.4411 12 28.3611 11.92 28.3611 11.76V6.48H28.2811L25.8011 11.76C25.7584 11.8453 25.7051 11.9093 25.6411 11.952C25.5878 11.984 25.4811 12 25.3211 12H24.9211C24.7611 12 24.6491 11.984 24.5851 11.952C24.5318 11.9093 24.4838 11.8453 24.4411 11.76L21.9611 6.48H21.8811V11.76C21.8811 11.92 21.8011 12 21.6411 12H20.7611C20.6011 12 20.5211 11.92 20.5211 11.76V4.08C20.5211 3.92 20.6011 3.84 20.7611 3.84H21.7211C21.8811 3.84 21.9878 3.86133 22.0411 3.904C22.1051 3.936 22.1584 3.99467 22.2011 4.08L25.0811 10.24H25.1611ZM37.6867 6.16C37.6867 5.79733 37.5747 5.50933 37.3507 5.296C37.1374 5.072 36.8494 4.96 36.4867 4.96H34.4867C34.1241 4.96 33.8307 5.072 33.6067 5.296C33.3934 5.50933 33.2867 5.79733 33.2867 6.16V9.68C33.2867 10.0427 33.3934 10.336 33.6067 10.56C33.8307 10.7733 34.1241 10.88 34.4867 10.88H36.4867C36.8494 10.88 37.1374 10.7733 37.3507 10.56C37.5747 10.336 37.6867 10.0427 37.6867 9.68V6.16ZM39.0467 9.68C39.0467 10.48 38.8281 11.0933 38.3907 11.52C37.9641 11.9467 37.3294 12.16 36.4867 12.16H34.4867C33.6441 12.16 33.0041 11.9467 32.5667 11.52C32.1401 11.0933 31.9267 10.48 31.9267 9.68V6.16C31.9267 5.36 32.1401 4.74667 32.5667 4.32C33.0041 3.89333 33.6441 3.68 34.4867 3.68H36.4867C37.3294 3.68 37.9641 3.89333 38.3907 4.32C38.8281 4.74667 39.0467 5.36 39.0467 6.16V9.68ZM42.6061 8.48V11.76C42.6061 11.92 42.5261 12 42.3661 12H41.4861C41.3261 12 41.2461 11.92 41.2461 11.76V4.08C41.2461 3.92 41.3261 3.84 41.4861 3.84H42.3661C42.5261 3.84 42.6061 3.92 42.6061 4.08V7.28H46.6861V4.08C46.6861 3.92 46.7661 3.84 46.9261 3.84H47.8061C47.9661 3.84 48.0461 3.92 48.0461 4.08V11.76C48.0461 11.92 47.9661 12 47.8061 12H46.9261C46.7661 12 46.6861 11.92 46.6861 11.76V8.48H42.6061ZM52.2455 12C52.0855 12 52.0055 11.92 52.0055 11.76V5.12H49.5255C49.3655 5.12 49.2855 5.04 49.2855 4.88V4.08C49.2855 3.92 49.3655 3.84 49.5255 3.84H55.8455C56.0055 3.84 56.0855 3.92 56.0855 4.08V4.88C56.0855 5.04 56.0055 5.12 55.8455 5.12H53.3655V11.76C53.3655 11.92 53.2855 12 53.1255 12H52.2455ZM64.0505 3.84C64.2105 3.84 64.2905 3.92 64.2905 4.08V11.76C64.2905 11.92 64.2105 12 64.0505 12H63.1705C63.0105 12 62.9305 11.92 62.9305 11.76V5.92H62.8505L59.0105 11.76C58.9572 11.8453 58.9038 11.9093 58.8505 11.952C58.7972 11.984 58.6905 12 58.5305 12H57.5705C57.4105 12 57.3305 11.92 57.3305 11.76V4.08C57.3305 3.92 57.4105 3.84 57.5705 3.84H58.4505C58.6105 3.84 58.6905 3.92 58.6905 4.08V9.92H58.7705L62.6105 4.08C62.6638 3.99467 62.7172 3.936 62.7705 3.904C62.8238 3.86133 62.9305 3.84 63.0905 3.84H64.0505ZM71.0461 10.72C71.4088 10.72 71.6968 10.6133 71.9101 10.4C72.1341 10.176 72.2461 9.88267 72.2461 9.52V6.16C72.2461 5.79733 72.1341 5.50933 71.9101 5.296C71.6968 5.072 71.4088 4.96 71.0461 4.96H69.6861C69.2061 4.96 68.8061 5.12 68.4861 5.44C68.1661 5.76 68.0061 6.16 68.0061 6.64V10.72H71.0461ZM68.0061 12V14.8C68.0061 14.96 67.9261 15.04 67.7661 15.04H66.8861C66.7261 15.04 66.6461 14.96 66.6461 14.8V4.08C66.6461 3.92 66.7261 3.84 66.8861 3.84H67.7661C67.9261 3.84 68.0061 3.92 68.0061 4.08V4.64H68.0861C68.1714 4.45867 68.2941 4.29867 68.4541 4.16C68.5928 4.04267 68.7741 3.936 68.9981 3.84C69.2221 3.73333 69.5048 3.68 69.8461 3.68H71.0461C71.8888 3.68 72.5234 3.89333 72.9501 4.32C73.3874 4.74667 73.6061 5.36 73.6061 6.16V9.52C73.6061 10.32 73.3874 10.9333 72.9501 11.36C72.5234 11.7867 71.8888 12 71.0461 12H68.0061ZM80.8775 4.08C80.9095 3.99467 80.9522 3.936 81.0055 3.904C81.0695 3.86133 81.1602 3.84 81.2775 3.84H82.2375C82.4082 3.84 82.4615 3.92 82.3975 4.08L79.2775 12C79.0535 12.5653 78.8348 13.04 78.6215 13.424C78.4082 13.808 78.1788 14.1173 77.9335 14.352C77.6882 14.5973 77.4215 14.7733 77.1335 14.88C76.8455 14.9867 76.5202 15.04 76.1575 15.04H75.8375C75.6775 15.04 75.5975 14.96 75.5975 14.8V14C75.5975 13.84 75.6775 13.76 75.8375 13.76H76.1575C76.5628 13.76 76.8935 13.6267 77.1495 13.36C77.4162 13.0933 77.6722 12.64 77.9175 12L74.7975 4.08C74.7335 3.92 74.7868 3.84 74.9575 3.84H75.9175C76.0348 3.84 76.1202 3.86133 76.1735 3.904C76.2375 3.936 76.2855 3.99467 76.3175 4.08L78.5575 10.08H78.6375L80.8775 4.08ZM89.2661 7.2V6.16C89.2661 5.79733 89.1541 5.50933 88.9301 5.296C88.7168 5.072 88.4288 4.96 88.0661 4.96H86.1461C85.7834 4.96 85.4901 5.072 85.2661 5.296C85.0528 5.50933 84.9461 5.79733 84.9461 6.16V7.2H89.2661ZM84.9461 8.48V9.68C84.9461 10.0427 85.0528 10.336 85.2661 10.56C85.4901 10.7733 85.7834 10.88 86.1461 10.88H88.0661C88.4288 10.88 88.7168 10.7733 88.9301 10.56C89.1541 10.336 89.2661 10.0427 89.2661 9.68V9.6C89.2661 9.44 89.3461 9.36 89.5061 9.36H90.3861C90.5461 9.36 90.6261 9.44 90.6261 9.6V9.68C90.6261 10.48 90.4074 11.0933 89.9701 11.52C89.5434 11.9467 88.9088 12.16 88.0661 12.16H86.1461C85.3034 12.16 84.6634 11.9467 84.2261 11.52C83.7994 11.0933 83.5861 10.48 83.5861 9.68V6.16C83.5861 5.36 83.7994 4.74667 84.2261 4.32C84.6634 3.89333 85.3034 3.68 86.1461 3.68H88.0661C88.9088 3.68 89.5434 3.89333 89.9701 4.32C90.4074 4.74667 90.6261 5.36 90.6261 6.16V8.24C90.6261 8.4 90.5461 8.48 90.3861 8.48H84.9461ZM97.4674 10.24L100.347 4.08C100.39 3.99467 100.438 3.936 100.491 3.904C100.555 3.86133 100.667 3.84 100.827 3.84H101.787C101.947 3.84 102.027 3.92 102.027 4.08V11.76C102.027 11.92 101.947 12 101.787 12H100.907C100.747 12 100.667 11.92 100.667 11.76V6.48H100.587L98.1074 11.76C98.0647 11.8453 98.0114 11.9093 97.9474 11.952C97.894 11.984 97.7874 12 97.6274 12H97.2274C97.0674 12 96.9554 11.984 96.8914 11.952C96.838 11.9093 96.79 11.8453 96.7474 11.76L94.2674 6.48H94.1874V11.76C94.1874 11.92 94.1074 12 93.9474 12H93.0674C92.9074 12 92.8274 11.92 92.8274 11.76V4.08C92.8274 3.92 92.9074 3.84 93.0674 3.84H94.0274C94.1874 3.84 94.294 3.86133 94.3474 3.904C94.4114 3.936 94.4647 3.99467 94.5074 4.08L97.3874 10.24H97.4674ZM108.233 10.72C108.553 10.72 108.804 10.6293 108.985 10.448C109.177 10.256 109.273 10 109.273 9.68V8.88C109.273 8.56 109.177 8.30933 108.985 8.128C108.804 7.936 108.553 7.84 108.233 7.84H105.753V10.72H108.233ZM104.633 12C104.473 12 104.393 11.92 104.393 11.76V4.08C104.393 3.92 104.473 3.84 104.633 3.84H105.513C105.673 3.84 105.753 3.92 105.753 4.08V6.56H108.233C109.833 6.56 110.633 7.33333 110.633 8.88V9.68C110.633 11.2267 109.833 12 108.233 12H104.633ZM113.353 11.76C113.353 11.92 113.273 12 113.113 12H112.233C112.073 12 111.993 11.92 111.993 11.76V4.08C111.993 3.92 112.073 3.84 112.233 3.84H113.113C113.273 3.84 113.353 3.92 113.353 4.08V11.76ZM121.229 7.2V6.16C121.229 5.79733 121.117 5.50933 120.893 5.296C120.679 5.072 120.391 4.96 120.029 4.96H118.109C117.746 4.96 117.453 5.072 117.229 5.296C117.015 5.50933 116.909 5.79733 116.909 6.16V7.2H121.229ZM116.909 8.48V9.68C116.909 10.0427 117.015 10.336 117.229 10.56C117.453 10.7733 117.746 10.88 118.109 10.88H120.029C120.391 10.88 120.679 10.7733 120.893 10.56C121.117 10.336 121.229 10.0427 121.229 9.68V9.6C121.229 9.44 121.309 9.36 121.469 9.36H122.349C122.509 9.36 122.589 9.44 122.589 9.6V9.68C122.589 10.48 122.37 11.0933 121.933 11.52C121.506 11.9467 120.871 12.16 120.029 12.16H118.109C117.266 12.16 116.626 11.9467 116.189 11.52C115.762 11.0933 115.549 10.48 115.549 9.68V6.16C115.549 5.36 115.762 4.74667 116.189 4.32C116.626 3.89333 117.266 3.68 118.109 3.68H120.029C120.871 3.68 121.506 3.89333 121.933 4.32C122.37 4.74667 122.589 5.36 122.589 6.16V8.24C122.589 8.4 122.509 8.48 122.349 8.48H116.909ZM132.865 4.08C132.897 3.99467 132.94 3.936 132.993 3.904C133.057 3.86133 133.148 3.84 133.265 3.84H134.225C134.396 3.84 134.449 3.92 134.385 4.08L131.265 12C131.041 12.5653 130.822 13.04 130.609 13.424C130.396 13.808 130.166 14.1173 129.921 14.352C129.676 14.5973 129.409 14.7733 129.121 14.88C128.833 14.9867 128.508 15.04 128.145 15.04H127.825C127.665 15.04 127.585 14.96 127.585 14.8V14C127.585 13.84 127.665 13.76 127.825 13.76H128.145C128.55 13.76 128.881 13.6267 129.137 13.36C129.404 13.0933 129.66 12.64 129.905 12L126.785 4.08C126.721 3.92 126.774 3.84 126.945 3.84H127.905C128.022 3.84 128.108 3.86133 128.161 3.904C128.225 3.936 128.273 3.99467 128.305 4.08L130.545 10.08H130.625L132.865 4.08ZM136.934 9.68C136.934 10.0427 137.04 10.336 137.254 10.56C137.478 10.7733 137.771 10.88 138.134 10.88H139.974C140.336 10.88 140.624 10.7733 140.838 10.56C141.062 10.336 141.174 10.0427 141.174 9.68V9.28C141.174 9.12 141.254 9.04 141.414 9.04H142.294C142.454 9.04 142.534 9.12 142.534 9.28V9.68C142.534 10.48 142.315 11.0933 141.878 11.52C141.451 11.9467 140.816 12.16 139.974 12.16H138.134C137.291 12.16 136.651 11.9467 136.214 11.52C135.787 11.0933 135.574 10.48 135.574 9.68V6.16C135.574 5.36 135.787 4.74667 136.214 4.32C136.651 3.89333 137.291 3.68 138.134 3.68H139.974C140.816 3.68 141.451 3.89333 141.878 4.32C142.315 4.74667 142.534 5.36 142.534 6.16V6.56C142.534 6.72 142.454 6.8 142.294 6.8H141.414C141.254 6.8 141.174 6.72 141.174 6.56V6.16C141.174 5.79733 141.062 5.50933 140.838 5.296C140.624 5.072 140.336 4.96 139.974 4.96H138.134C137.771 4.96 137.478 5.072 137.254 5.296C137.04 5.50933 136.934 5.79733 136.934 6.16V9.68ZM146.42 12C146.26 12 146.18 11.92 146.18 11.76V5.12H143.7C143.54 5.12 143.46 5.04 143.46 4.88V4.08C143.46 3.92 143.54 3.84 143.7 3.84H150.02C150.18 3.84 150.26 3.92 150.26 4.08V4.88C150.26 5.04 150.18 5.12 150.02 5.12H147.54V11.76C147.54 11.92 147.46 12 147.3 12H146.42ZM155.905 10.72C156.268 10.72 156.556 10.6133 156.769 10.4C156.993 10.176 157.105 9.88267 157.105 9.52V6.16C157.105 5.79733 156.993 5.50933 156.769 5.296C156.556 5.072 156.268 4.96 155.905 4.96H154.545C154.065 4.96 153.665 5.12 153.345 5.44C153.025 5.76 152.865 6.16 152.865 6.64V10.72H155.905ZM152.865 12V14.8C152.865 14.96 152.785 15.04 152.625 15.04H151.745C151.585 15.04 151.505 14.96 151.505 14.8V4.08C151.505 3.92 151.585 3.84 151.745 3.84H152.625C152.785 3.84 152.865 3.92 152.865 4.08V4.64H152.945C153.031 4.45867 153.153 4.29867 153.313 4.16C153.452 4.04267 153.633 3.936 153.857 3.84C154.081 3.73333 154.364 3.68 154.705 3.68H155.905C156.748 3.68 157.383 3.89333 157.809 4.32C158.247 4.74667 158.465 5.36 158.465 6.16V9.52C158.465 10.32 158.247 10.9333 157.809 11.36C157.383 11.7867 156.748 12 155.905 12H152.865ZM166.265 6.16C166.265 5.79733 166.153 5.50933 165.929 5.296C165.716 5.072 165.428 4.96 165.065 4.96H163.065C162.702 4.96 162.409 5.072 162.185 5.296C161.972 5.50933 161.865 5.79733 161.865 6.16V9.68C161.865 10.0427 161.972 10.336 162.185 10.56C162.409 10.7733 162.702 10.88 163.065 10.88H165.065C165.428 10.88 165.716 10.7733 165.929 10.56C166.153 10.336 166.265 10.0427 166.265 9.68V6.16ZM167.625 9.68C167.625 10.48 167.406 11.0933 166.969 11.52C166.542 11.9467 165.908 12.16 165.065 12.16H163.065C162.222 12.16 161.582 11.9467 161.145 11.52C160.718 11.0933 160.505 10.48 160.505 9.68V6.16C160.505 5.36 160.718 4.74667 161.145 4.32C161.582 3.89333 162.222 3.68 163.065 3.68H165.065C165.908 3.68 166.542 3.89333 166.969 4.32C167.406 4.74667 167.625 5.36 167.625 6.16V9.68ZM172.864 2.56C172.256 2.56 171.798 2.41067 171.488 2.112C171.179 1.80267 171.024 1.36533 171.024 0.799999V0.4C171.024 0.24 171.104 0.16 171.264 0.16H171.984C172.144 0.16 172.224 0.24 172.224 0.4V0.799999C172.224 1.22667 172.438 1.44 172.864 1.44H173.744C174.171 1.44 174.384 1.22667 174.384 0.799999V0.4C174.384 0.24 174.464 0.16 174.624 0.16H175.344C175.504 0.16 175.584 0.24 175.584 0.4V0.799999C175.584 1.36533 175.43 1.80267 175.12 2.112C174.811 2.41067 174.352 2.56 173.744 2.56H172.864ZM176.544 3.84C176.704 3.84 176.784 3.92 176.784 4.08V11.76C176.784 11.92 176.704 12 176.544 12H175.664C175.504 12 175.424 11.92 175.424 11.76V5.92H175.344L171.504 11.76C171.451 11.8453 171.398 11.9093 171.344 11.952C171.291 11.984 171.184 12 171.024 12H170.064C169.904 12 169.824 11.92 169.824 11.76V4.08C169.824 3.92 169.904 3.84 170.064 3.84H170.944C171.104 3.84 171.184 3.92 171.184 4.08V9.92H171.264L175.104 4.08C175.158 3.99467 175.211 3.936 175.264 3.904C175.318 3.86133 175.424 3.84 175.584 3.84H176.544ZM180.34 9.68C180.34 10.0427 180.447 10.336 180.66 10.56C180.884 10.7733 181.177 10.88 181.54 10.88H183.38C183.743 10.88 184.031 10.7733 184.244 10.56C184.468 10.336 184.58 10.0427 184.58 9.68V9.28C184.58 9.12 184.66 9.04 184.82 9.04H185.7C185.86 9.04 185.94 9.12 185.94 9.28V9.68C185.94 10.48 185.721 11.0933 185.284 11.52C184.857 11.9467 184.223 12.16 183.38 12.16H181.54C180.697 12.16 180.057 11.9467 179.62 11.52C179.193 11.0933 178.98 10.48 178.98 9.68V6.16C178.98 5.36 179.193 4.74667 179.62 4.32C180.057 3.89333 180.697 3.68 181.54 3.68H183.38C184.223 3.68 184.857 3.89333 185.284 4.32C185.721 4.74667 185.94 5.36 185.94 6.16V6.56C185.94 6.72 185.86 6.8 185.7 6.8H184.82C184.66 6.8 184.58 6.72 184.58 6.56V6.16C184.58 5.79733 184.468 5.50933 184.244 5.296C184.031 5.072 183.743 4.96 183.38 4.96H181.54C181.177 4.96 180.884 5.072 180.66 5.296C180.447 5.50933 180.34 5.79733 180.34 6.16V9.68ZM189.827 12C189.667 12 189.587 11.92 189.587 11.76V5.12H187.107C186.947 5.12 186.867 5.04 186.867 4.88V4.08C186.867 3.92 186.947 3.84 187.107 3.84H193.427C193.587 3.84 193.667 3.92 193.667 4.08V4.88C193.667 5.04 193.587 5.12 193.427 5.12H190.947V11.76C190.947 11.92 190.867 12 190.707 12H189.827ZM199.312 10.72C199.632 10.72 199.882 10.6293 200.064 10.448C200.256 10.256 200.352 10 200.352 9.68V9.52C200.352 9.2 200.256 8.94933 200.064 8.768C199.882 8.576 199.632 8.48 199.312 8.48H196.272V10.72H199.312ZM198.832 7.2C199.152 7.2 199.402 7.10933 199.584 6.928C199.776 6.736 199.872 6.48 199.872 6.16C199.872 5.84 199.776 5.58933 199.584 5.408C199.402 5.216 199.152 5.12 198.832 5.12H196.272V7.2H198.832ZM195.152 12C194.992 12 194.912 11.92 194.912 11.76V4.08C194.912 3.92 194.992 3.84 195.152 3.84H198.832C200.432 3.84 201.232 4.61333 201.232 6.16C201.232 6.48 201.173 6.74133 201.056 6.944C200.949 7.136 200.832 7.29067 200.704 7.408C200.554 7.536 200.384 7.62667 200.192 7.68V7.76C200.469 7.81333 200.72 7.91467 200.944 8.064C201.136 8.192 201.312 8.37333 201.472 8.608C201.632 8.84267 201.712 9.14667 201.712 9.52V9.68C201.712 11.2267 200.912 12 199.312 12H195.152ZM203.267 9.52C203.267 7.97333 204.067 7.2 205.667 7.2H208.627V6.16C208.627 5.79733 208.515 5.50933 208.291 5.296C208.077 5.072 207.789 4.96 207.427 4.96H206.307C205.944 4.96 205.651 5.072 205.427 5.296C205.213 5.50933 205.107 5.79733 205.107 6.16C205.107 6.32 205.027 6.4 204.867 6.4H203.987C203.827 6.4 203.747 6.32 203.747 6.16C203.747 5.36 203.96 4.74667 204.387 4.32C204.824 3.89333 205.464 3.68 206.307 3.68H207.427C208.269 3.68 208.904 3.89333 209.331 4.32C209.768 4.74667 209.987 5.36 209.987 6.16V11.76C209.987 11.92 209.907 12 209.747 12H208.867C208.707 12 208.627 11.92 208.627 11.76V11.2H208.547C208.461 11.3813 208.339 11.5413 208.179 11.68C208.04 11.7973 207.859 11.904 207.635 12C207.411 12.1067 207.128 12.16 206.787 12.16H205.667C204.067 12.16 203.267 11.3867 203.267 9.84V9.52ZM204.627 9.84C204.627 10.16 204.717 10.416 204.899 10.608C205.091 10.7893 205.347 10.88 205.667 10.88H206.947C207.427 10.88 207.827 10.72 208.147 10.4C208.467 10.08 208.627 9.68 208.627 9.2V8.48H205.667C205.347 8.48 205.091 8.576 204.899 8.768C204.717 8.94933 204.627 9.2 204.627 9.52V9.84Z" fill="#7E7E82"/>
</svg>
