<svg width="132" height="14" viewBox="0 0 132 14" fill="none" xmlns="http://www.w3.org/2000/svg">
<path d="M0.574522 3.44C0.574522 1.57333 1.53452 0.639999 3.45452 0.639999H7.13452C9.05452 0.639999 10.0145 1.57333 10.0145 3.44V4.08C10.0145 4.24 9.93452 4.32 9.77452 4.32H8.73452C8.57452 4.32 8.49452 4.24 8.49452 4.08V3.44C8.49452 2.53333 8.04119 2.08 7.13452 2.08H3.45452C2.54785 2.08 2.09452 2.53333 2.09452 3.44V9.36C2.09452 10.2667 2.54785 10.72 3.45452 10.72H7.13452C8.04119 10.72 8.49452 10.2667 8.49452 9.36V8.72C8.49452 8.56 8.57452 8.48 8.73452 8.48H9.77452C9.93452 8.48 10.0145 8.56 10.0145 8.72V9.36C10.0145 11.2267 9.05452 12.16 7.13452 12.16H3.45452C1.53452 12.16 0.574522 11.2267 0.574522 9.36V3.44ZM17.8945 12C17.7345 12 17.6545 11.92 17.6545 11.76V5.12H13.5745V11.76C13.5745 11.92 13.4945 12 13.3345 12H12.4545C12.2945 12 12.2145 11.92 12.2145 11.76V4.08C12.2145 3.92 12.2945 3.84 12.4545 3.84H18.7745C18.9345 3.84 19.0145 3.92 19.0145 4.08V11.76C19.0145 11.92 18.9345 12 18.7745 12H17.8945ZM26.8939 7.2V6.16C26.8939 5.79733 26.7819 5.50933 26.5579 5.296C26.3446 5.072 26.0566 4.96 25.6939 4.96H23.7739C23.4112 4.96 23.1179 5.072 22.8939 5.296C22.6806 5.50933 22.5739 5.79733 22.5739 6.16V7.2H26.8939ZM22.5739 8.48V9.68C22.5739 10.0427 22.6806 10.336 22.8939 10.56C23.1179 10.7733 23.4112 10.88 23.7739 10.88H25.6939C26.0566 10.88 26.3446 10.7733 26.5579 10.56C26.7819 10.336 26.8939 10.0427 26.8939 9.68V9.6C26.8939 9.44 26.9739 9.36 27.1339 9.36H28.0139C28.1739 9.36 28.2539 9.44 28.2539 9.6V9.68C28.2539 10.48 28.0352 11.0933 27.5979 11.52C27.1712 11.9467 26.5366 12.16 25.6939 12.16H23.7739C22.9312 12.16 22.2912 11.9467 21.8539 11.52C21.4272 11.0933 21.2139 10.48 21.2139 9.68V6.16C21.2139 5.36 21.4272 4.74667 21.8539 4.32C22.2912 3.89333 22.9312 3.68 23.7739 3.68H25.6939C26.5366 3.68 27.1712 3.89333 27.5979 4.32C28.0352 4.74667 28.2539 5.36 28.2539 6.16V8.24C28.2539 8.4 28.1739 8.48 28.0139 8.48H22.5739ZM30.6951 12C30.5351 12 30.4551 11.92 30.4551 11.76V4.08C30.4551 3.92 30.5351 3.84 30.6951 3.84H31.5751C31.7351 3.84 31.8151 3.92 31.8151 4.08V10.72H35.7351V4.08C35.7351 3.92 35.8151 3.84 35.9751 3.84H36.8551C37.0151 3.84 37.0951 3.92 37.0951 4.08V10.96L38.5351 12.56C38.5778 12.6027 38.5991 12.656 38.5991 12.72C38.5991 12.784 38.5778 12.8373 38.5351 12.88L37.8151 13.52C37.6978 13.616 37.5911 13.616 37.4951 13.52L36.1351 12H30.6951ZM46.397 3.84C46.557 3.84 46.637 3.92 46.637 4.08V11.76C46.637 11.92 46.557 12 46.397 12H45.517C45.357 12 45.277 11.92 45.277 11.76V5.92H45.197L41.357 11.76C41.3037 11.8453 41.2504 11.9093 41.197 11.952C41.1437 11.984 41.037 12 40.877 12H39.917C39.757 12 39.677 11.92 39.677 11.76V4.08C39.677 3.92 39.757 3.84 39.917 3.84H40.797C40.957 3.84 41.037 3.92 41.037 4.08V9.92H41.117L44.957 4.08C45.0104 3.99467 45.0637 3.936 45.117 3.904C45.1704 3.86133 45.277 3.84 45.437 3.84H46.397ZM48.6726 9.52C48.6726 7.97333 49.4726 7.2 51.0726 7.2H54.0326V6.16C54.0326 5.79733 53.9206 5.50933 53.6966 5.296C53.4833 5.072 53.1953 4.96 52.8326 4.96H51.7126C51.35 4.96 51.0566 5.072 50.8326 5.296C50.6193 5.50933 50.5126 5.79733 50.5126 6.16C50.5126 6.32 50.4326 6.4 50.2726 6.4H49.3926C49.2326 6.4 49.1526 6.32 49.1526 6.16C49.1526 5.36 49.366 4.74667 49.7926 4.32C50.23 3.89333 50.87 3.68 51.7126 3.68H52.8326C53.6753 3.68 54.31 3.89333 54.7366 4.32C55.174 4.74667 55.3926 5.36 55.3926 6.16V11.76C55.3926 11.92 55.3126 12 55.1526 12H54.2726C54.1126 12 54.0326 11.92 54.0326 11.76V11.2H53.9526C53.8673 11.3813 53.7446 11.5413 53.5846 11.68C53.446 11.7973 53.2646 11.904 53.0406 12C52.8166 12.1067 52.534 12.16 52.1926 12.16H51.0726C49.4726 12.16 48.6726 11.3867 48.6726 9.84V9.52ZM50.0326 9.84C50.0326 10.16 50.1233 10.416 50.3046 10.608C50.4966 10.7893 50.7526 10.88 51.0726 10.88H52.3526C52.8326 10.88 53.2326 10.72 53.5526 10.4C53.8726 10.08 54.0326 9.68 54.0326 9.2V8.48H51.0726C50.7526 8.48 50.4966 8.576 50.3046 8.768C50.1233 8.94933 50.0326 9.2 50.0326 9.52V9.84ZM59.4258 9.84C59.2658 10.64 58.9938 11.2267 58.6098 11.6C58.2258 11.9733 57.6711 12.16 56.9458 12.16H56.7058C56.5458 12.16 56.4658 12.08 56.4658 11.92V11.12C56.4658 10.96 56.5458 10.88 56.7058 10.88H56.9458C57.2231 10.88 57.4578 10.7893 57.6498 10.608C57.8524 10.4267 57.9911 10.1707 58.0658 9.84L59.2658 4.08C59.2978 3.92 59.4311 3.84 59.6658 3.84H64.1458C64.3058 3.84 64.3858 3.92 64.3858 4.08V11.76C64.3858 11.92 64.3058 12 64.1458 12H63.2658C63.1058 12 63.0258 11.92 63.0258 11.76V5.12H60.3858L59.4258 9.84ZM70.9089 10.72C71.2289 10.72 71.4796 10.6293 71.6609 10.448C71.8529 10.256 71.9489 10 71.9489 9.68V8.88C71.9489 8.56 71.8529 8.30933 71.6609 8.128C71.4796 7.936 71.2289 7.84 70.9089 7.84H68.1089V10.72H70.9089ZM66.9889 12C66.8289 12 66.7489 11.92 66.7489 11.76V4.08C66.7489 3.92 66.8289 3.84 66.9889 3.84H67.8689C68.0289 3.84 68.1089 3.92 68.1089 4.08V6.56H70.9089C72.5089 6.56 73.3089 7.33333 73.3089 8.88V9.68C73.3089 11.2267 72.5089 12 70.9089 12H66.9889ZM76.7058 8.48V11.76C76.7058 11.92 76.6258 12 76.4658 12H75.5858C75.4258 12 75.3458 11.92 75.3458 11.76V4.08C75.3458 3.92 75.4258 3.84 75.5858 3.84H76.4658C76.6258 3.84 76.7058 3.92 76.7058 4.08V7.28H80.7858V4.08C80.7858 3.92 80.8658 3.84 81.0258 3.84H81.9058C82.0658 3.84 82.1458 3.92 82.1458 4.08V11.76C82.1458 11.92 82.0658 12 81.9058 12H81.0258C80.8658 12 80.7858 11.92 80.7858 11.76V8.48H76.7058ZM88.3451 10.72C88.6651 10.72 88.9158 10.6293 89.0971 10.448C89.2891 10.256 89.3851 10 89.3851 9.68V8.88C89.3851 8.56 89.2891 8.30933 89.0971 8.128C88.9158 7.936 88.6651 7.84 88.3451 7.84H85.8651V10.72H88.3451ZM84.7451 12C84.5851 12 84.5051 11.92 84.5051 11.76V4.08C84.5051 3.92 84.5851 3.84 84.7451 3.84H85.6251C85.7851 3.84 85.8651 3.92 85.8651 4.08V6.56H88.3451C89.9451 6.56 90.7451 7.33333 90.7451 8.88V9.68C90.7451 11.2267 89.9451 12 88.3451 12H84.7451ZM93.4651 11.76C93.4651 11.92 93.3851 12 93.2251 12H92.3451C92.1851 12 92.1051 11.92 92.1051 11.76V4.08C92.1051 3.92 92.1851 3.84 92.3451 3.84H93.2251C93.3851 3.84 93.4651 3.92 93.4651 4.08V11.76ZM101.341 7.2V6.16C101.341 5.79733 101.229 5.50933 101.005 5.296C100.791 5.072 100.503 4.96 100.141 4.96H98.2208C97.8581 4.96 97.5648 5.072 97.3408 5.296C97.1274 5.50933 97.0208 5.79733 97.0208 6.16V7.2H101.341ZM97.0208 8.48V9.68C97.0208 10.0427 97.1274 10.336 97.3408 10.56C97.5648 10.7733 97.8581 10.88 98.2208 10.88H100.141C100.503 10.88 100.791 10.7733 101.005 10.56C101.229 10.336 101.341 10.0427 101.341 9.68V9.6C101.341 9.44 101.421 9.36 101.581 9.36H102.461C102.621 9.36 102.701 9.44 102.701 9.6V9.68C102.701 10.48 102.482 11.0933 102.045 11.52C101.618 11.9467 100.983 12.16 100.141 12.16H98.2208C97.3781 12.16 96.7381 11.9467 96.3008 11.52C95.8741 11.0933 95.6608 10.48 95.6608 9.68V6.16C95.6608 5.36 95.8741 4.74667 96.3008 4.32C96.7381 3.89333 97.3781 3.68 98.2208 3.68H100.141C100.983 3.68 101.618 3.89333 102.045 4.32C102.482 4.74667 102.701 5.36 102.701 6.16V8.24C102.701 8.4 102.621 8.48 102.461 8.48H97.0208ZM108.145 12C107.985 12 107.905 11.92 107.905 11.76V4.08C107.905 3.92 107.985 3.84 108.145 3.84H109.025C109.185 3.84 109.265 3.92 109.265 4.08V10.72H113.185V4.08C113.185 3.92 113.265 3.84 113.425 3.84H114.305C114.465 3.84 114.545 3.92 114.545 4.08V10.96L115.985 12.56C116.028 12.6027 116.049 12.656 116.049 12.72C116.049 12.784 116.028 12.8373 115.985 12.88L115.265 13.52C115.148 13.616 115.041 13.616 114.945 13.52L113.585 12H108.145ZM122.647 7.2V6.16C122.647 5.79733 122.535 5.50933 122.311 5.296C122.098 5.072 121.81 4.96 121.447 4.96H119.527C119.164 4.96 118.871 5.072 118.647 5.296C118.434 5.50933 118.327 5.79733 118.327 6.16V7.2H122.647ZM118.327 8.48V9.68C118.327 10.0427 118.434 10.336 118.647 10.56C118.871 10.7733 119.164 10.88 119.527 10.88H121.447C121.81 10.88 122.098 10.7733 122.311 10.56C122.535 10.336 122.647 10.0427 122.647 9.68V9.6C122.647 9.44 122.727 9.36 122.887 9.36H123.767C123.927 9.36 124.007 9.44 124.007 9.6V9.68C124.007 10.48 123.788 11.0933 123.351 11.52C122.924 11.9467 122.29 12.16 121.447 12.16H119.527C118.684 12.16 118.044 11.9467 117.607 11.52C117.18 11.0933 116.967 10.48 116.967 9.68V6.16C116.967 5.36 117.18 4.74667 117.607 4.32C118.044 3.89333 118.684 3.68 119.527 3.68H121.447C122.29 3.68 122.924 3.89333 123.351 4.32C123.788 4.74667 124.007 5.36 124.007 6.16V8.24C124.007 8.4 123.927 8.48 123.767 8.48H118.327ZM127.568 8.48V11.76C127.568 11.92 127.488 12 127.328 12H126.448C126.288 12 126.208 11.92 126.208 11.76V4.08C126.208 3.92 126.288 3.84 126.448 3.84H127.328C127.488 3.84 127.568 3.92 127.568 4.08V7.28H131.648V4.08C131.648 3.92 131.728 3.84 131.888 3.84H132.768C132.928 3.84 133.008 3.92 133.008 4.08V11.76C133.008 11.92 132.928 12 132.768 12H131.888C131.728 12 131.648 11.92 131.648 11.76V8.48H127.568ZM139.208 10.72C139.528 10.72 139.778 10.6293 139.96 10.448C140.152 10.256 140.248 10 140.248 9.68V8.88C140.248 8.56 140.152 8.30933 139.96 8.128C139.778 7.936 139.528 7.84 139.208 7.84H136.728V10.72H139.208ZM135.608 12C135.448 12 135.368 11.92 135.368 11.76V4.08C135.368 3.92 135.448 3.84 135.608 3.84H136.488C136.648 3.84 136.728 3.92 136.728 4.08V6.56H139.208C140.808 6.56 141.608 7.33333 141.608 8.88V9.68C141.608 11.2267 140.808 12 139.208 12H135.608ZM144.328 11.76C144.328 11.92 144.248 12 144.088 12H143.208C143.048 12 142.968 11.92 142.968 11.76V4.08C142.968 3.92 143.048 3.84 143.208 3.84H144.088C144.248 3.84 144.328 3.92 144.328 4.08V11.76Z" fill="#7E7E82"/>
</svg>
