<svg width="204" height="16" viewBox="0 0 204 16" fill="none" xmlns="http://www.w3.org/2000/svg">
<path d="M7.232 7.68L5.344 2.56H5.28L3.392 7.68H7.232ZM2.832 9.12L1.872 11.76C1.84 11.8453 1.792 11.9093 1.728 11.952C1.67467 11.984 1.58933 12 1.472 12H0.352C0.181333 12 0.128 11.92 0.192 11.76L4.352 1.04C4.39467 0.954666 4.44267 0.896 4.496 0.863999C4.54933 0.821333 4.63467 0.799999 4.752 0.799999H5.872C5.98933 0.799999 6.07467 0.821333 6.128 0.863999C6.18133 0.896 6.22933 0.954666 6.272 1.04L10.432 11.76C10.496 11.92 10.4427 12 10.272 12H9.152C9.03467 12 8.944 11.984 8.88 11.952C8.82667 11.9093 8.784 11.8453 8.752 11.76L7.792 9.12H2.832ZM16.505 5.12H13.865L12.745 10.72H16.505V5.12ZM17.865 10.72H18.665C18.825 10.72 18.905 10.8 18.905 10.96V13.52C18.905 13.68 18.825 13.76 18.665 13.76H17.785C17.625 13.76 17.545 13.68 17.545 13.52V12H11.785V13.52C11.785 13.68 11.705 13.76 11.545 13.76H10.665C10.505 13.76 10.425 13.68 10.425 13.52V10.96C10.425 10.8 10.505 10.72 10.665 10.72H11.385L12.745 4.08C12.777 3.92 12.9103 3.84 13.145 3.84H17.625C17.785 3.84 17.865 3.92 17.865 4.08V10.72ZM24.8581 10.72C25.2208 10.72 25.5088 10.6133 25.7221 10.4C25.9461 10.176 26.0581 9.88267 26.0581 9.52V6.16C26.0581 5.79733 25.9461 5.50933 25.7221 5.296C25.5088 5.072 25.2208 4.96 24.8581 4.96H23.4981C23.0181 4.96 22.6181 5.12 22.2981 5.44C21.9781 5.76 21.8181 6.16 21.8181 6.64V10.72H24.8581ZM21.8181 12V14.8C21.8181 14.96 21.7381 15.04 21.5781 15.04H20.6981C20.5381 15.04 20.4581 14.96 20.4581 14.8V4.08C20.4581 3.92 20.5381 3.84 20.6981 3.84H21.5781C21.7381 3.84 21.8181 3.92 21.8181 4.08V4.64H21.8981C21.9835 4.45867 22.1061 4.29867 22.2661 4.16C22.4048 4.04267 22.5861 3.936 22.8101 3.84C23.0341 3.73333 23.3168 3.68 23.6581 3.68H24.8581C25.7008 3.68 26.3355 3.89333 26.7621 4.32C27.1995 4.74667 27.4181 5.36 27.4181 6.16V9.52C27.4181 10.32 27.1995 10.9333 26.7621 11.36C26.3355 11.7867 25.7008 12 24.8581 12H21.8181ZM35.1375 7.2V6.16C35.1375 5.79733 35.0255 5.50933 34.8015 5.296C34.5882 5.072 34.3002 4.96 33.9375 4.96H32.0175C31.6548 4.96 31.3615 5.072 31.1375 5.296C30.9242 5.50933 30.8175 5.79733 30.8175 6.16V7.2H35.1375ZM30.8175 8.48V9.68C30.8175 10.0427 30.9242 10.336 31.1375 10.56C31.3615 10.7733 31.6548 10.88 32.0175 10.88H33.9375C34.3002 10.88 34.5882 10.7733 34.8015 10.56C35.0255 10.336 35.1375 10.0427 35.1375 9.68V9.6C35.1375 9.44 35.2175 9.36 35.3775 9.36H36.2575C36.4175 9.36 36.4975 9.44 36.4975 9.6V9.68C36.4975 10.48 36.2788 11.0933 35.8415 11.52C35.4148 11.9467 34.7802 12.16 33.9375 12.16H32.0175C31.1748 12.16 30.5348 11.9467 30.0975 11.52C29.6708 11.0933 29.4575 10.48 29.4575 9.68V6.16C29.4575 5.36 29.6708 4.74667 30.0975 4.32C30.5348 3.89333 31.1748 3.68 32.0175 3.68H33.9375C34.7802 3.68 35.4148 3.89333 35.8415 4.32C36.2788 4.74667 36.4975 5.36 36.4975 6.16V8.24C36.4975 8.4 36.4175 8.48 36.2575 8.48H30.8175ZM39.8988 9.68C39.8988 10.0427 40.0054 10.336 40.2188 10.56C40.4428 10.7733 40.7361 10.88 41.0988 10.88H42.9388C43.3014 10.88 43.5894 10.7733 43.8028 10.56C44.0268 10.336 44.1388 10.0427 44.1388 9.68V9.28C44.1388 9.12 44.2188 9.04 44.3788 9.04H45.2588C45.4188 9.04 45.4988 9.12 45.4988 9.28V9.68C45.4988 10.48 45.2801 11.0933 44.8428 11.52C44.4161 11.9467 43.7814 12.16 42.9388 12.16H41.0988C40.2561 12.16 39.6161 11.9467 39.1788 11.52C38.7521 11.0933 38.5388 10.48 38.5388 9.68V6.16C38.5388 5.36 38.7521 4.74667 39.1788 4.32C39.6161 3.89333 40.2561 3.68 41.0988 3.68H42.9388C43.7814 3.68 44.4161 3.89333 44.8428 4.32C45.2801 4.74667 45.4988 5.36 45.4988 6.16V6.56C45.4988 6.72 45.4188 6.8 45.2588 6.8H44.3788C44.2188 6.8 44.1388 6.72 44.1388 6.56V6.16C44.1388 5.79733 44.0268 5.50933 43.8028 5.296C43.5894 5.072 43.3014 4.96 42.9388 4.96H41.0988C40.7361 4.96 40.4428 5.072 40.2188 5.296C40.0054 5.50933 39.8988 5.79733 39.8988 6.16V9.68ZM47.2256 9.52C47.2256 7.97333 48.0256 7.2 49.6256 7.2H52.5856V6.16C52.5856 5.79733 52.4736 5.50933 52.2496 5.296C52.0363 5.072 51.7483 4.96 51.3856 4.96H50.2656C49.903 4.96 49.6096 5.072 49.3856 5.296C49.1723 5.50933 49.0656 5.79733 49.0656 6.16C49.0656 6.32 48.9856 6.4 48.8256 6.4H47.9456C47.7856 6.4 47.7056 6.32 47.7056 6.16C47.7056 5.36 47.919 4.74667 48.3456 4.32C48.783 3.89333 49.423 3.68 50.2656 3.68H51.3856C52.2283 3.68 52.863 3.89333 53.2896 4.32C53.727 4.74667 53.9456 5.36 53.9456 6.16V11.76C53.9456 11.92 53.8656 12 53.7056 12H52.8256C52.6656 12 52.5856 11.92 52.5856 11.76V11.2H52.5056C52.4203 11.3813 52.2976 11.5413 52.1376 11.68C51.999 11.7973 51.8176 11.904 51.5936 12C51.3696 12.1067 51.087 12.16 50.7456 12.16H49.6256C48.0256 12.16 47.2256 11.3867 47.2256 9.84V9.52ZM48.5856 9.84C48.5856 10.16 48.6763 10.416 48.8576 10.608C49.0496 10.7893 49.3056 10.88 49.6256 10.88H50.9056C51.3856 10.88 51.7856 10.72 52.1056 10.4C52.4256 10.08 52.5856 9.68 52.5856 9.2V8.48H49.6256C49.3056 8.48 49.0496 8.576 48.8576 8.768C48.6763 8.94933 48.5856 9.2 48.5856 9.52V9.84ZM60.5019 9.68C60.5019 10.0427 60.6085 10.336 60.8219 10.56C61.0459 10.7733 61.3392 10.88 61.7019 10.88H63.5419C63.9045 10.88 64.1925 10.7733 64.4059 10.56C64.6299 10.336 64.7419 10.0427 64.7419 9.68V9.28C64.7419 9.12 64.8219 9.04 64.9819 9.04H65.8619C66.0219 9.04 66.1019 9.12 66.1019 9.28V9.68C66.1019 10.48 65.8832 11.0933 65.4459 11.52C65.0192 11.9467 64.3845 12.16 63.5419 12.16H61.7019C60.8592 12.16 60.2192 11.9467 59.7819 11.52C59.3552 11.0933 59.1419 10.48 59.1419 9.68V6.16C59.1419 5.36 59.3552 4.74667 59.7819 4.32C60.2192 3.89333 60.8592 3.68 61.7019 3.68H63.5419C64.3845 3.68 65.0192 3.89333 65.4459 4.32C65.8832 4.74667 66.1019 5.36 66.1019 6.16V6.56C66.1019 6.72 66.0219 6.8 65.8619 6.8H64.9819C64.8219 6.8 64.7419 6.72 64.7419 6.56V6.16C64.7419 5.79733 64.6299 5.50933 64.4059 5.296C64.1925 5.072 63.9045 4.96 63.5419 4.96H61.7019C61.3392 4.96 61.0459 5.072 60.8219 5.296C60.6085 5.50933 60.5019 5.79733 60.5019 6.16V9.68ZM73.6688 7.2V6.16C73.6688 5.79733 73.5568 5.50933 73.3328 5.296C73.1194 5.072 72.8314 4.96 72.4688 4.96H70.5488C70.1861 4.96 69.8928 5.072 69.6688 5.296C69.4554 5.50933 69.3488 5.79733 69.3488 6.16V7.2H73.6688ZM69.3488 8.48V9.68C69.3488 10.0427 69.4554 10.336 69.6688 10.56C69.8928 10.7733 70.1861 10.88 70.5488 10.88H72.4688C72.8314 10.88 73.1194 10.7733 73.3328 10.56C73.5568 10.336 73.6688 10.0427 73.6688 9.68V9.6C73.6688 9.44 73.7488 9.36 73.9088 9.36H74.7888C74.9488 9.36 75.0288 9.44 75.0288 9.6V9.68C75.0288 10.48 74.8101 11.0933 74.3728 11.52C73.9461 11.9467 73.3114 12.16 72.4688 12.16H70.5488C69.7061 12.16 69.0661 11.9467 68.6288 11.52C68.2021 11.0933 67.9888 10.48 67.9888 9.68V6.16C67.9888 5.36 68.2021 4.74667 68.6288 4.32C69.0661 3.89333 69.7061 3.68 70.5488 3.68H72.4688C73.3114 3.68 73.9461 3.89333 74.3728 4.32C74.8101 4.74667 75.0288 5.36 75.0288 6.16V8.24C75.0288 8.4 74.9488 8.48 74.7888 8.48H69.3488ZM81.63 10.72C81.9927 10.72 82.2807 10.6133 82.494 10.4C82.718 10.176 82.83 9.88267 82.83 9.52V6.16C82.83 5.79733 82.718 5.50933 82.494 5.296C82.2807 5.072 81.9927 4.96 81.63 4.96H80.27C79.79 4.96 79.39 5.12 79.07 5.44C78.75 5.76 78.59 6.16 78.59 6.64V10.72H81.63ZM78.59 12V14.8C78.59 14.96 78.51 15.04 78.35 15.04H77.47C77.31 15.04 77.23 14.96 77.23 14.8V4.08C77.23 3.92 77.31 3.84 77.47 3.84H78.35C78.51 3.84 78.59 3.92 78.59 4.08V4.64H78.67C78.7553 4.45867 78.878 4.29867 79.038 4.16C79.1767 4.04267 79.358 3.936 79.582 3.84C79.806 3.73333 80.0887 3.68 80.43 3.68H81.63C82.4727 3.68 83.1073 3.89333 83.534 4.32C83.9713 4.74667 84.19 5.36 84.19 6.16V9.52C84.19 10.32 83.9713 10.9333 83.534 11.36C83.1073 11.7867 82.4727 12 81.63 12H78.59ZM90.7894 10.72C91.1094 10.72 91.36 10.6293 91.5414 10.448C91.7334 10.256 91.8294 10 91.8294 9.68V9.52C91.8294 9.2 91.7334 8.94933 91.5414 8.768C91.36 8.576 91.1094 8.48 90.7894 8.48H87.7494V10.72H90.7894ZM90.3094 7.2C90.6294 7.2 90.88 7.10933 91.0614 6.928C91.2534 6.736 91.3494 6.48 91.3494 6.16C91.3494 5.84 91.2534 5.58933 91.0614 5.408C90.88 5.216 90.6294 5.12 90.3094 5.12H87.7494V7.2H90.3094ZM86.6294 12C86.4694 12 86.3894 11.92 86.3894 11.76V4.08C86.3894 3.92 86.4694 3.84 86.6294 3.84H90.3094C91.9094 3.84 92.7094 4.61333 92.7094 6.16C92.7094 6.48 92.6507 6.74133 92.5334 6.944C92.4267 7.136 92.3094 7.29067 92.1814 7.408C92.032 7.536 91.8614 7.62667 91.6694 7.68V7.76C91.9467 7.81333 92.1974 7.91467 92.4214 8.064C92.6134 8.192 92.7894 8.37333 92.9494 8.608C93.1094 8.84267 93.1894 9.14667 93.1894 9.52V9.68C93.1894 11.2267 92.3894 12 90.7894 12H86.6294ZM101.784 3.84C101.944 3.84 102.024 3.92 102.024 4.08V11.76C102.024 11.92 101.944 12 101.784 12H100.904C100.744 12 100.664 11.92 100.664 11.76V5.92H100.584L96.7444 11.76C96.691 11.8453 96.6377 11.9093 96.5844 11.952C96.531 11.984 96.4244 12 96.2644 12H95.3044C95.1444 12 95.0644 11.92 95.0644 11.76V4.08C95.0644 3.92 95.1444 3.84 95.3044 3.84H96.1844C96.3444 3.84 96.4244 3.92 96.4244 4.08V9.92H96.5044L100.344 4.08C100.398 3.99467 100.451 3.936 100.504 3.904C100.558 3.86133 100.664 3.84 100.824 3.84H101.784ZM105.58 9.68C105.58 10.0427 105.687 10.336 105.9 10.56C106.124 10.7733 106.417 10.88 106.78 10.88H108.62C108.983 10.88 109.271 10.7733 109.484 10.56C109.708 10.336 109.82 10.0427 109.82 9.68V9.28C109.82 9.12 109.9 9.04 110.06 9.04H110.94C111.1 9.04 111.18 9.12 111.18 9.28V9.68C111.18 10.48 110.961 11.0933 110.524 11.52C110.097 11.9467 109.463 12.16 108.62 12.16H106.78C105.937 12.16 105.297 11.9467 104.86 11.52C104.433 11.0933 104.22 10.48 104.22 9.68V6.16C104.22 5.36 104.433 4.74667 104.86 4.32C105.297 3.89333 105.937 3.68 106.78 3.68H108.62C109.463 3.68 110.097 3.89333 110.524 4.32C110.961 4.74667 111.18 5.36 111.18 6.16V6.56C111.18 6.72 111.1 6.8 110.94 6.8H110.06C109.9 6.8 109.82 6.72 109.82 6.56V6.16C109.82 5.79733 109.708 5.50933 109.484 5.296C109.271 5.072 108.983 4.96 108.62 4.96H106.78C106.417 4.96 106.124 5.072 105.9 5.296C105.687 5.50933 105.58 5.79733 105.58 6.16V9.68ZM114.587 8.48V11.76C114.587 11.92 114.507 12 114.347 12H113.467C113.307 12 113.227 11.92 113.227 11.76V4.08C113.227 3.92 113.307 3.84 113.467 3.84H114.347C114.507 3.84 114.587 3.92 114.587 4.08V7.28H118.667V4.08C118.667 3.92 118.747 3.84 118.907 3.84H119.787C119.947 3.84 120.027 3.92 120.027 4.08V11.76C120.027 11.92 119.947 12 119.787 12H118.907C118.747 12 118.667 11.92 118.667 11.76V8.48H114.587ZM126.226 10.72C126.546 10.72 126.797 10.6293 126.978 10.448C127.17 10.256 127.266 10 127.266 9.68V8.88C127.266 8.56 127.17 8.30933 126.978 8.128C126.797 7.936 126.546 7.84 126.226 7.84H123.746V10.72H126.226ZM122.626 12C122.466 12 122.386 11.92 122.386 11.76V4.08C122.386 3.92 122.466 3.84 122.626 3.84H123.506C123.666 3.84 123.746 3.92 123.746 4.08V6.56H126.226C127.826 6.56 128.626 7.33333 128.626 8.88V9.68C128.626 11.2267 127.826 12 126.226 12H122.626ZM131.346 11.76C131.346 11.92 131.266 12 131.106 12H130.226C130.066 12 129.986 11.92 129.986 11.76V4.08C129.986 3.92 130.066 3.84 130.226 3.84H131.106C131.266 3.84 131.346 3.92 131.346 4.08V11.76ZM136.23 6.8L137.99 4.08C138.043 3.99467 138.091 3.936 138.134 3.904C138.187 3.86133 138.273 3.84 138.39 3.84H139.35C139.435 3.84 139.494 3.86133 139.526 3.904C139.569 3.936 139.563 3.99467 139.51 4.08L137.11 7.76L139.75 11.76C139.803 11.8347 139.809 11.8933 139.766 11.936C139.734 11.9787 139.675 12 139.59 12H138.63C138.513 12 138.427 11.984 138.374 11.952C138.331 11.9093 138.283 11.8453 138.23 11.76L136.23 8.72L134.23 11.76C134.177 11.8453 134.123 11.9093 134.07 11.952C134.027 11.984 133.947 12 133.83 12H132.87C132.785 12 132.721 11.9787 132.678 11.936C132.646 11.8933 132.657 11.8347 132.71 11.76L135.35 7.76L132.95 4.08C132.897 3.99467 132.886 3.936 132.918 3.904C132.961 3.86133 133.025 3.84 133.11 3.84H134.07C134.187 3.84 134.267 3.86133 134.31 3.904C134.363 3.936 134.417 3.99467 134.47 4.08L136.23 6.8ZM144.354 12C144.194 12 144.114 11.92 144.114 11.76V4.08C144.114 3.92 144.194 3.84 144.354 3.84H145.234C145.394 3.84 145.474 3.92 145.474 4.08V10.72H149.394V4.08C149.394 3.92 149.474 3.84 149.634 3.84H150.514C150.674 3.84 150.754 3.92 150.754 4.08V10.96L152.194 12.56C152.237 12.6027 152.258 12.656 152.258 12.72C152.258 12.784 152.237 12.8373 152.194 12.88L151.474 13.52C151.357 13.616 151.25 13.616 151.154 13.52L149.794 12H144.354ZM158.856 7.2V6.16C158.856 5.79733 158.744 5.50933 158.52 5.296C158.307 5.072 158.019 4.96 157.656 4.96H155.736C155.374 4.96 155.08 5.072 154.856 5.296C154.643 5.50933 154.536 5.79733 154.536 6.16V7.2H158.856ZM154.536 8.48V9.68C154.536 10.0427 154.643 10.336 154.856 10.56C155.08 10.7733 155.374 10.88 155.736 10.88H157.656C158.019 10.88 158.307 10.7733 158.52 10.56C158.744 10.336 158.856 10.0427 158.856 9.68V9.6C158.856 9.44 158.936 9.36 159.096 9.36H159.976C160.136 9.36 160.216 9.44 160.216 9.6V9.68C160.216 10.48 159.998 11.0933 159.56 11.52C159.134 11.9467 158.499 12.16 157.656 12.16H155.736C154.894 12.16 154.254 11.9467 153.816 11.52C153.39 11.0933 153.176 10.48 153.176 9.68V6.16C153.176 5.36 153.39 4.74667 153.816 4.32C154.254 3.89333 154.894 3.68 155.736 3.68H157.656C158.499 3.68 159.134 3.89333 159.56 4.32C159.998 4.74667 160.216 5.36 160.216 6.16V8.24C160.216 8.4 160.136 8.48 159.976 8.48H154.536ZM163.777 8.48V11.76C163.777 11.92 163.697 12 163.537 12H162.657C162.497 12 162.417 11.92 162.417 11.76V4.08C162.417 3.92 162.497 3.84 162.657 3.84H163.537C163.697 3.84 163.777 3.92 163.777 4.08V7.28H167.857V4.08C167.857 3.92 167.937 3.84 168.097 3.84H168.977C169.137 3.84 169.217 3.92 169.217 4.08V11.76C169.217 11.92 169.137 12 168.977 12H168.097C167.937 12 167.857 11.92 167.857 11.76V8.48H163.777ZM173.417 12C173.257 12 173.177 11.92 173.177 11.76V5.12H170.697C170.537 5.12 170.457 5.04 170.457 4.88V4.08C170.457 3.92 170.537 3.84 170.697 3.84H177.017C177.177 3.84 177.257 3.92 177.257 4.08V4.88C177.257 5.04 177.177 5.12 177.017 5.12H174.537V11.76C174.537 11.92 174.457 12 174.297 12H173.417ZM182.902 10.72C183.265 10.72 183.553 10.6133 183.766 10.4C183.99 10.176 184.102 9.88267 184.102 9.52V6.16C184.102 5.79733 183.99 5.50933 183.766 5.296C183.553 5.072 183.265 4.96 182.902 4.96H181.542C181.062 4.96 180.662 5.12 180.342 5.44C180.022 5.76 179.862 6.16 179.862 6.64V10.72H182.902ZM179.862 12V14.8C179.862 14.96 179.782 15.04 179.622 15.04H178.742C178.582 15.04 178.502 14.96 178.502 14.8V4.08C178.502 3.92 178.582 3.84 178.742 3.84H179.622C179.782 3.84 179.862 3.92 179.862 4.08V4.64H179.942C180.027 4.45867 180.15 4.29867 180.31 4.16C180.449 4.04267 180.63 3.936 180.854 3.84C181.078 3.73333 181.361 3.68 181.702 3.68H182.902C183.745 3.68 184.379 3.89333 184.806 4.32C185.243 4.74667 185.462 5.36 185.462 6.16V9.52C185.462 10.32 185.243 10.9333 184.806 11.36C184.379 11.7867 183.745 12 182.902 12H179.862ZM193.261 6.16C193.261 5.79733 193.149 5.50933 192.925 5.296C192.712 5.072 192.424 4.96 192.061 4.96H190.061C189.699 4.96 189.405 5.072 189.181 5.296C188.968 5.50933 188.861 5.79733 188.861 6.16V9.68C188.861 10.0427 188.968 10.336 189.181 10.56C189.405 10.7733 189.699 10.88 190.061 10.88H192.061C192.424 10.88 192.712 10.7733 192.925 10.56C193.149 10.336 193.261 10.0427 193.261 9.68V6.16ZM194.621 9.68C194.621 10.48 194.403 11.0933 193.965 11.52C193.539 11.9467 192.904 12.16 192.061 12.16H190.061C189.219 12.16 188.579 11.9467 188.141 11.52C187.715 11.0933 187.501 10.48 187.501 9.68V6.16C187.501 5.36 187.715 4.74667 188.141 4.32C188.579 3.89333 189.219 3.68 190.061 3.68H192.061C192.904 3.68 193.539 3.89333 193.965 4.32C194.403 4.74667 194.621 5.36 194.621 6.16V9.68ZM201.221 10.72C201.541 10.72 201.791 10.6293 201.973 10.448C202.165 10.256 202.261 10 202.261 9.68V9.52C202.261 9.2 202.165 8.94933 201.973 8.768C201.791 8.576 201.541 8.48 201.221 8.48H198.181V10.72H201.221ZM200.741 7.2C201.061 7.2 201.311 7.10933 201.493 6.928C201.685 6.736 201.781 6.48 201.781 6.16C201.781 5.84 201.685 5.58933 201.493 5.408C201.311 5.216 201.061 5.12 200.741 5.12H198.181V7.2H200.741ZM197.061 12C196.901 12 196.821 11.92 196.821 11.76V4.08C196.821 3.92 196.901 3.84 197.061 3.84H200.741C202.341 3.84 203.141 4.61333 203.141 6.16C203.141 6.48 203.082 6.74133 202.965 6.944C202.858 7.136 202.741 7.29067 202.613 7.408C202.463 7.536 202.293 7.62667 202.101 7.68V7.76C202.378 7.81333 202.629 7.91467 202.853 8.064C203.045 8.192 203.221 8.37333 203.381 8.608C203.541 8.84267 203.621 9.14667 203.621 9.52V9.68C203.621 11.2267 202.821 12 201.221 12H197.061Z" fill="#7E7E82"/>
</svg>
