<svg width="145" height="14" viewBox="0 0 145 14" fill="none" xmlns="http://www.w3.org/2000/svg">
<path d="M0.44 3.44C0.44 1.57333 1.4 0.639999 3.32 0.639999H7C8.92 0.639999 9.88 1.57333 9.88 3.44V4.08C9.88 4.24 9.8 4.32 9.64 4.32H8.6C8.44 4.32 8.36 4.24 8.36 4.08V3.44C8.36 2.53333 7.90667 2.08 7 2.08H3.32C2.41333 2.08 1.96 2.53333 1.96 3.44V9.36C1.96 10.2667 2.41333 10.72 3.32 10.72H7C7.90667 10.72 8.36 10.2667 8.36 9.36V8.72C8.36 8.56 8.44 8.48 8.6 8.48H9.64C9.8 8.48 9.88 8.56 9.88 8.72V9.36C9.88 11.2267 8.92 12.16 7 12.16H3.32C1.4 12.16 0.44 11.2267 0.44 9.36V3.44ZM17.76 12C17.6 12 17.52 11.92 17.52 11.76V5.12H13.44V11.76C13.44 11.92 13.36 12 13.2 12H12.32C12.16 12 12.08 11.92 12.08 11.76V4.08C12.08 3.92 12.16 3.84 12.32 3.84H18.64C18.8 3.84 18.88 3.92 18.88 4.08V11.76C18.88 11.92 18.8 12 18.64 12H17.76ZM26.7594 7.2V6.16C26.7594 5.79733 26.6474 5.50933 26.4234 5.296C26.21 5.072 25.922 4.96 25.5594 4.96H23.6394C23.2767 4.96 22.9834 5.072 22.7594 5.296C22.546 5.50933 22.4394 5.79733 22.4394 6.16V7.2H26.7594ZM22.4394 8.48V9.68C22.4394 10.0427 22.546 10.336 22.7594 10.56C22.9834 10.7733 23.2767 10.88 23.6394 10.88H25.5594C25.922 10.88 26.21 10.7733 26.4234 10.56C26.6474 10.336 26.7594 10.0427 26.7594 9.68V9.6C26.7594 9.44 26.8394 9.36 26.9994 9.36H27.8794C28.0394 9.36 28.1194 9.44 28.1194 9.6V9.68C28.1194 10.48 27.9007 11.0933 27.4634 11.52C27.0367 11.9467 26.402 12.16 25.5594 12.16H23.6394C22.7967 12.16 22.1567 11.9467 21.7194 11.52C21.2927 11.0933 21.0794 10.48 21.0794 9.68V6.16C21.0794 5.36 21.2927 4.74667 21.7194 4.32C22.1567 3.89333 22.7967 3.68 23.6394 3.68H25.5594C26.402 3.68 27.0367 3.89333 27.4634 4.32C27.9007 4.74667 28.1194 5.36 28.1194 6.16V8.24C28.1194 8.4 28.0394 8.48 27.8794 8.48H22.4394ZM30.5606 12C30.4006 12 30.3206 11.92 30.3206 11.76V4.08C30.3206 3.92 30.4006 3.84 30.5606 3.84H31.4406C31.6006 3.84 31.6806 3.92 31.6806 4.08V10.72H35.6006V4.08C35.6006 3.92 35.6806 3.84 35.8406 3.84H36.7206C36.8806 3.84 36.9606 3.92 36.9606 4.08V10.96L38.4006 12.56C38.4433 12.6027 38.4646 12.656 38.4646 12.72C38.4646 12.784 38.4433 12.8373 38.4006 12.88L37.6806 13.52C37.5633 13.616 37.4566 13.616 37.3606 13.52L36.0006 12H30.5606ZM46.2625 3.84C46.4225 3.84 46.5025 3.92 46.5025 4.08V11.76C46.5025 11.92 46.4225 12 46.2625 12H45.3825C45.2225 12 45.1425 11.92 45.1425 11.76V5.92H45.0625L41.2225 11.76C41.1692 11.8453 41.1158 11.9093 41.0625 11.952C41.0092 11.984 40.9025 12 40.7425 12H39.7825C39.6225 12 39.5425 11.92 39.5425 11.76V4.08C39.5425 3.92 39.6225 3.84 39.7825 3.84H40.6625C40.8225 3.84 40.9025 3.92 40.9025 4.08V9.92H40.9825L44.8225 4.08C44.8758 3.99467 44.9292 3.936 44.9825 3.904C45.0358 3.86133 45.1425 3.84 45.3025 3.84H46.2625ZM48.5381 9.52C48.5381 7.97333 49.3381 7.2 50.9381 7.2H53.8981V6.16C53.8981 5.79733 53.7861 5.50933 53.5621 5.296C53.3488 5.072 53.0608 4.96 52.6981 4.96H51.5781C51.2155 4.96 50.9221 5.072 50.6981 5.296C50.4848 5.50933 50.3781 5.79733 50.3781 6.16C50.3781 6.32 50.2981 6.4 50.1381 6.4H49.2581C49.0981 6.4 49.0181 6.32 49.0181 6.16C49.0181 5.36 49.2315 4.74667 49.6581 4.32C50.0955 3.89333 50.7355 3.68 51.5781 3.68H52.6981C53.5408 3.68 54.1755 3.89333 54.6021 4.32C55.0395 4.74667 55.2581 5.36 55.2581 6.16V11.76C55.2581 11.92 55.1781 12 55.0181 12H54.1381C53.9781 12 53.8981 11.92 53.8981 11.76V11.2H53.8181C53.7328 11.3813 53.6101 11.5413 53.4501 11.68C53.3115 11.7973 53.1301 11.904 52.9061 12C52.6821 12.1067 52.3995 12.16 52.0581 12.16H50.9381C49.3381 12.16 48.5381 11.3867 48.5381 9.84V9.52ZM49.8981 9.84C49.8981 10.16 49.9888 10.416 50.1701 10.608C50.3621 10.7893 50.6181 10.88 50.9381 10.88H52.2181C52.6981 10.88 53.0981 10.72 53.4181 10.4C53.7381 10.08 53.8981 9.68 53.8981 9.2V8.48H50.9381C50.6181 8.48 50.3621 8.576 50.1701 8.768C49.9888 8.94933 49.8981 9.2 49.8981 9.52V9.84ZM59.2912 9.84C59.1312 10.64 58.8592 11.2267 58.4752 11.6C58.0912 11.9733 57.5366 12.16 56.8112 12.16H56.5712C56.4112 12.16 56.3312 12.08 56.3312 11.92V11.12C56.3312 10.96 56.4112 10.88 56.5712 10.88H56.8112C57.0886 10.88 57.3232 10.7893 57.5152 10.608C57.7179 10.4267 57.8566 10.1707 57.9312 9.84L59.1312 4.08C59.1632 3.92 59.2966 3.84 59.5312 3.84H64.0112C64.1712 3.84 64.2512 3.92 64.2512 4.08V11.76C64.2512 11.92 64.1712 12 64.0112 12H63.1312C62.9712 12 62.8912 11.92 62.8912 11.76V5.12H60.2512L59.2912 9.84ZM70.7744 10.72C71.0944 10.72 71.345 10.6293 71.5264 10.448C71.7184 10.256 71.8144 10 71.8144 9.68V8.88C71.8144 8.56 71.7184 8.30933 71.5264 8.128C71.345 7.936 71.0944 7.84 70.7744 7.84H67.9744V10.72H70.7744ZM66.8544 12C66.6944 12 66.6144 11.92 66.6144 11.76V4.08C66.6144 3.92 66.6944 3.84 66.8544 3.84H67.7344C67.8944 3.84 67.9744 3.92 67.9744 4.08V6.56H70.7744C72.3744 6.56 73.1744 7.33333 73.1744 8.88V9.68C73.1744 11.2267 72.3744 12 70.7744 12H66.8544ZM76.5713 8.48V11.76C76.5713 11.92 76.4913 12 76.3313 12H75.4513C75.2913 12 75.2113 11.92 75.2113 11.76V4.08C75.2113 3.92 75.2913 3.84 75.4513 3.84H76.3313C76.4913 3.84 76.5713 3.92 76.5713 4.08V7.28H80.6513V4.08C80.6513 3.92 80.7313 3.84 80.8913 3.84H81.7713C81.9313 3.84 82.0113 3.92 82.0113 4.08V11.76C82.0113 11.92 81.9313 12 81.7713 12H80.8913C80.7313 12 80.6513 11.92 80.6513 11.76V8.48H76.5713ZM88.2106 10.72C88.5306 10.72 88.7813 10.6293 88.9626 10.448C89.1546 10.256 89.2506 10 89.2506 9.68V8.88C89.2506 8.56 89.1546 8.30933 88.9626 8.128C88.7813 7.936 88.5306 7.84 88.2106 7.84H85.7306V10.72H88.2106ZM84.6106 12C84.4506 12 84.3706 11.92 84.3706 11.76V4.08C84.3706 3.92 84.4506 3.84 84.6106 3.84H85.4906C85.6506 3.84 85.7306 3.92 85.7306 4.08V6.56H88.2106C89.8106 6.56 90.6106 7.33333 90.6106 8.88V9.68C90.6106 11.2267 89.8106 12 88.2106 12H84.6106ZM93.3306 11.76C93.3306 11.92 93.2506 12 93.0906 12H92.2106C92.0506 12 91.9706 11.92 91.9706 11.76V4.08C91.9706 3.92 92.0506 3.84 92.2106 3.84H93.0906C93.2506 3.84 93.3306 3.92 93.3306 4.08V11.76ZM101.206 7.2V6.16C101.206 5.79733 101.094 5.50933 100.87 5.296C100.657 5.072 100.369 4.96 100.006 4.96H98.0863C97.7236 4.96 97.4303 5.072 97.2063 5.296C96.9929 5.50933 96.8863 5.79733 96.8863 6.16V7.2H101.206ZM96.8863 8.48V9.68C96.8863 10.0427 96.9929 10.336 97.2063 10.56C97.4303 10.7733 97.7236 10.88 98.0863 10.88H100.006C100.369 10.88 100.657 10.7733 100.87 10.56C101.094 10.336 101.206 10.0427 101.206 9.68V9.6C101.206 9.44 101.286 9.36 101.446 9.36H102.326C102.486 9.36 102.566 9.44 102.566 9.6V9.68C102.566 10.48 102.348 11.0933 101.91 11.52C101.484 11.9467 100.849 12.16 100.006 12.16H98.0863C97.2436 12.16 96.6036 11.9467 96.1663 11.52C95.7396 11.0933 95.5263 10.48 95.5263 9.68V6.16C95.5263 5.36 95.7396 4.74667 96.1663 4.32C96.6036 3.89333 97.2436 3.68 98.0863 3.68H100.006C100.849 3.68 101.484 3.89333 101.91 4.32C102.348 4.74667 102.566 5.36 102.566 6.16V8.24C102.566 8.4 102.486 8.48 102.326 8.48H96.8863ZM108.011 12C107.851 12 107.771 11.92 107.771 11.76V4.08C107.771 3.92 107.851 3.84 108.011 3.84H108.891C109.051 3.84 109.131 3.92 109.131 4.08V10.72H113.051V4.08C113.051 3.92 113.131 3.84 113.291 3.84H114.171C114.331 3.84 114.411 3.92 114.411 4.08V10.96L115.851 12.56C115.893 12.6027 115.915 12.656 115.915 12.72C115.915 12.784 115.893 12.8373 115.851 12.88L115.131 13.52C115.013 13.616 114.907 13.616 114.811 13.52L113.451 12H108.011ZM122.513 7.2V6.16C122.513 5.79733 122.401 5.50933 122.177 5.296C121.963 5.072 121.675 4.96 121.313 4.96H119.393C119.03 4.96 118.737 5.072 118.513 5.296C118.299 5.50933 118.193 5.79733 118.193 6.16V7.2H122.513ZM118.193 8.48V9.68C118.193 10.0427 118.299 10.336 118.513 10.56C118.737 10.7733 119.03 10.88 119.393 10.88H121.313C121.675 10.88 121.963 10.7733 122.177 10.56C122.401 10.336 122.513 10.0427 122.513 9.68V9.6C122.513 9.44 122.593 9.36 122.753 9.36H123.633C123.793 9.36 123.873 9.44 123.873 9.6V9.68C123.873 10.48 123.654 11.0933 123.217 11.52C122.79 11.9467 122.155 12.16 121.313 12.16H119.393C118.55 12.16 117.91 11.9467 117.473 11.52C117.046 11.0933 116.833 10.48 116.833 9.68V6.16C116.833 5.36 117.046 4.74667 117.473 4.32C117.91 3.89333 118.55 3.68 119.393 3.68H121.313C122.155 3.68 122.79 3.89333 123.217 4.32C123.654 4.74667 123.873 5.36 123.873 6.16V8.24C123.873 8.4 123.793 8.48 123.633 8.48H118.193ZM127.434 8.48V11.76C127.434 11.92 127.354 12 127.194 12H126.314C126.154 12 126.074 11.92 126.074 11.76V4.08C126.074 3.92 126.154 3.84 126.314 3.84H127.194C127.354 3.84 127.434 3.92 127.434 4.08V7.28H131.514V4.08C131.514 3.92 131.594 3.84 131.754 3.84H132.634C132.794 3.84 132.874 3.92 132.874 4.08V11.76C132.874 11.92 132.794 12 132.634 12H131.754C131.594 12 131.514 11.92 131.514 11.76V8.48H127.434ZM139.073 10.72C139.393 10.72 139.644 10.6293 139.825 10.448C140.017 10.256 140.113 10 140.113 9.68V8.88C140.113 8.56 140.017 8.30933 139.825 8.128C139.644 7.936 139.393 7.84 139.073 7.84H136.593V10.72H139.073ZM135.473 12C135.313 12 135.233 11.92 135.233 11.76V4.08C135.233 3.92 135.313 3.84 135.473 3.84H136.353C136.513 3.84 136.593 3.92 136.593 4.08V6.56H139.073C140.673 6.56 141.473 7.33333 141.473 8.88V9.68C141.473 11.2267 140.673 12 139.073 12H135.473ZM144.193 11.76C144.193 11.92 144.113 12 143.953 12H143.073C142.913 12 142.833 11.92 142.833 11.76V4.08C142.833 3.92 142.913 3.84 143.073 3.84H143.953C144.113 3.84 144.193 3.92 144.193 4.08V11.76Z" fill="#7E7E82"/>
</svg>
