<svg width="98" height="14" viewBox="0 0 98 14" fill="none" xmlns="http://www.w3.org/2000/svg">
<path d="M7.56 1.04C7.56 0.879999 7.64 0.799999 7.8 0.799999H8.84C9 0.799999 9.08 0.879999 9.08 1.04V11.76C9.08 11.92 9 12 8.84 12H7.8C7.64 12 7.56 11.92 7.56 11.76V8.16H3.32C1.4 8.16 0.44 7.22667 0.44 5.36V1.04C0.44 0.879999 0.52 0.799999 0.68 0.799999H1.72C1.88 0.799999 1.96 0.879999 1.96 1.04V5.36C1.96 6.26667 2.41333 6.72 3.32 6.72H7.56V1.04ZM18.4875 3.84C18.6475 3.84 18.7275 3.92 18.7275 4.08V11.76C18.7275 11.92 18.6475 12 18.4875 12H17.6075C17.4475 12 17.3675 11.92 17.3675 11.76V5.92H17.2875L13.4475 11.76C13.3942 11.8453 13.3408 11.9093 13.2875 11.952C13.2342 11.984 13.1275 12 12.9675 12H12.0075C11.8475 12 11.7675 11.92 11.7675 11.76V4.08C11.7675 3.92 11.8475 3.84 12.0075 3.84H12.8875C13.0475 3.84 13.1275 3.92 13.1275 4.08V9.92H13.2075L17.0475 4.08C17.1008 3.99467 17.1542 3.936 17.2075 3.904C17.2608 3.86133 17.3675 3.84 17.5275 3.84H18.4875ZM22.9231 12C22.7631 12 22.6831 11.92 22.6831 11.76V5.12H20.2031C20.0431 5.12 19.9631 5.04 19.9631 4.88V4.08C19.9631 3.92 20.0431 3.84 20.2031 3.84H26.5231C26.6831 3.84 26.7631 3.92 26.7631 4.08V4.88C26.7631 5.04 26.6831 5.12 26.5231 5.12H24.0431V11.76C24.0431 11.92 23.9631 12 23.8031 12H22.9231ZM27.6881 9.52C27.6881 7.97333 28.4881 7.2 30.0881 7.2H33.0481V6.16C33.0481 5.79733 32.9361 5.50933 32.7121 5.296C32.4988 5.072 32.2108 4.96 31.8481 4.96H30.7281C30.3655 4.96 30.0721 5.072 29.8481 5.296C29.6348 5.50933 29.5281 5.79733 29.5281 6.16C29.5281 6.32 29.4481 6.4 29.2881 6.4H28.4081C28.2481 6.4 28.1681 6.32 28.1681 6.16C28.1681 5.36 28.3815 4.74667 28.8081 4.32C29.2455 3.89333 29.8855 3.68 30.7281 3.68H31.8481C32.6908 3.68 33.3255 3.89333 33.7521 4.32C34.1895 4.74667 34.4081 5.36 34.4081 6.16V11.76C34.4081 11.92 34.3281 12 34.1681 12H33.2881C33.1281 12 33.0481 11.92 33.0481 11.76V11.2H32.9681C32.8828 11.3813 32.7601 11.5413 32.6001 11.68C32.4615 11.7973 32.2801 11.904 32.0561 12C31.8321 12.1067 31.5495 12.16 31.2081 12.16H30.0881C28.4881 12.16 27.6881 11.3867 27.6881 9.84V9.52ZM29.0481 9.84C29.0481 10.16 29.1388 10.416 29.3201 10.608C29.5121 10.7893 29.7681 10.88 30.0881 10.88H31.3681C31.8481 10.88 32.2481 10.72 32.5681 10.4C32.8881 10.08 33.0481 9.68 33.0481 9.2V8.48H30.0881C29.7681 8.48 29.5121 8.576 29.3201 8.768C29.1388 8.94933 29.0481 9.2 29.0481 9.52V9.84ZM38.6013 12C38.4413 12 38.3613 11.92 38.3613 11.76V5.12H35.8813C35.7213 5.12 35.6413 5.04 35.6413 4.88V4.08C35.6413 3.92 35.7213 3.84 35.8813 3.84H42.2013C42.3613 3.84 42.4413 3.92 42.4413 4.08V4.88C42.4413 5.04 42.3613 5.12 42.2013 5.12H39.7213V11.76C39.7213 11.92 39.6413 12 39.4813 12H38.6013ZM47.8463 10.72C48.1663 10.72 48.4169 10.6293 48.5983 10.448C48.7903 10.256 48.8863 10 48.8863 9.68V8.88C48.8863 8.56 48.7903 8.30933 48.5983 8.128C48.4169 7.936 48.1663 7.84 47.8463 7.84H45.0463V10.72H47.8463ZM43.9263 12C43.7663 12 43.6863 11.92 43.6863 11.76V4.08C43.6863 3.92 43.7663 3.84 43.9263 3.84H44.8063C44.9663 3.84 45.0463 3.92 45.0463 4.08V6.56H47.8463C49.4463 6.56 50.2463 7.33333 50.2463 8.88V9.68C50.2463 11.2267 49.4463 12 47.8463 12H43.9263ZM60.0862 5.12H57.4462L56.3262 10.72H60.0862V5.12ZM61.4462 10.72H62.2462C62.4062 10.72 62.4862 10.8 62.4862 10.96V13.52C62.4862 13.68 62.4062 13.76 62.2462 13.76H61.3662C61.2062 13.76 61.1262 13.68 61.1262 13.52V12H55.3662V13.52C55.3662 13.68 55.2862 13.76 55.1262 13.76H54.2462C54.0862 13.76 54.0062 13.68 54.0062 13.52V10.96C54.0062 10.8 54.0862 10.72 54.2462 10.72H54.9662L56.3262 4.08C56.3582 3.92 56.4916 3.84 56.7262 3.84H61.2062C61.3662 3.84 61.4462 3.92 61.4462 4.08V10.72ZM63.7194 9.52C63.7194 7.97333 64.5194 7.2 66.1194 7.2H69.0794V6.16C69.0794 5.79733 68.9674 5.50933 68.7434 5.296C68.53 5.072 68.242 4.96 67.8794 4.96H66.7594C66.3967 4.96 66.1034 5.072 65.8794 5.296C65.666 5.50933 65.5594 5.79733 65.5594 6.16C65.5594 6.32 65.4794 6.4 65.3194 6.4H64.4394C64.2794 6.4 64.1994 6.32 64.1994 6.16C64.1994 5.36 64.4127 4.74667 64.8394 4.32C65.2767 3.89333 65.9167 3.68 66.7594 3.68H67.8794C68.722 3.68 69.3567 3.89333 69.7834 4.32C70.2207 4.74667 70.4394 5.36 70.4394 6.16V11.76C70.4394 11.92 70.3594 12 70.1994 12H69.3194C69.1594 12 69.0794 11.92 69.0794 11.76V11.2H68.9994C68.914 11.3813 68.7914 11.5413 68.6314 11.68C68.4927 11.7973 68.3114 11.904 68.0874 12C67.8634 12.1067 67.5807 12.16 67.2394 12.16H66.1194C64.5194 12.16 63.7194 11.3867 63.7194 9.84V9.52ZM65.0794 9.84C65.0794 10.16 65.17 10.416 65.3514 10.608C65.5434 10.7893 65.7994 10.88 66.1194 10.88H67.3994C67.8794 10.88 68.2794 10.72 68.5994 10.4C68.9194 10.08 69.0794 9.68 69.0794 9.2V8.48H66.1194C65.7994 8.48 65.5434 8.576 65.3514 8.768C65.17 8.94933 65.0794 9.2 65.0794 9.52V9.84ZM74.4725 9.84C74.3125 10.64 74.0405 11.2267 73.6565 11.6C73.2725 11.9733 72.7178 12.16 71.9925 12.16H71.7525C71.5925 12.16 71.5125 12.08 71.5125 11.92V11.12C71.5125 10.96 71.5925 10.88 71.7525 10.88H71.9925C72.2698 10.88 72.5045 10.7893 72.6965 10.608C72.8992 10.4267 73.0378 10.1707 73.1125 9.84L74.3125 4.08C74.3445 3.92 74.4778 3.84 74.7125 3.84H79.1925C79.3525 3.84 79.4325 3.92 79.4325 4.08V11.76C79.4325 11.92 79.3525 12 79.1925 12H78.3125C78.1525 12 78.0725 11.92 78.0725 11.76V5.12H75.4325L74.4725 9.84ZM87.3156 7.2V6.16C87.3156 5.79733 87.2036 5.50933 86.9796 5.296C86.7663 5.072 86.4783 4.96 86.1156 4.96H84.1956C83.833 4.96 83.5396 5.072 83.3156 5.296C83.1023 5.50933 82.9956 5.79733 82.9956 6.16V7.2H87.3156ZM82.9956 8.48V9.68C82.9956 10.0427 83.1023 10.336 83.3156 10.56C83.5396 10.7733 83.833 10.88 84.1956 10.88H86.1156C86.4783 10.88 86.7663 10.7733 86.9796 10.56C87.2036 10.336 87.3156 10.0427 87.3156 9.68V9.6C87.3156 9.44 87.3956 9.36 87.5556 9.36H88.4356C88.5956 9.36 88.6756 9.44 88.6756 9.6V9.68C88.6756 10.48 88.457 11.0933 88.0196 11.52C87.593 11.9467 86.9583 12.16 86.1156 12.16H84.1956C83.353 12.16 82.713 11.9467 82.2756 11.52C81.849 11.0933 81.6356 10.48 81.6356 9.68V6.16C81.6356 5.36 81.849 4.74667 82.2756 4.32C82.713 3.89333 83.353 3.68 84.1956 3.68H86.1156C86.9583 3.68 87.593 3.89333 88.0196 4.32C88.457 4.74667 88.6756 5.36 88.6756 6.16V8.24C88.6756 8.4 88.5956 8.48 88.4356 8.48H82.9956ZM96.3969 7.2V6.16C96.3969 5.79733 96.2849 5.50933 96.0609 5.296C95.8475 5.072 95.5595 4.96 95.1969 4.96H93.2769C92.9142 4.96 92.6209 5.072 92.3969 5.296C92.1835 5.50933 92.0769 5.79733 92.0769 6.16V7.2H96.3969ZM92.0769 8.48V9.68C92.0769 10.0427 92.1835 10.336 92.3969 10.56C92.6209 10.7733 92.9142 10.88 93.2769 10.88H95.1969C95.5595 10.88 95.8475 10.7733 96.0609 10.56C96.2849 10.336 96.3969 10.0427 96.3969 9.68V9.6C96.3969 9.44 96.4769 9.36 96.6369 9.36H97.5169C97.6769 9.36 97.7569 9.44 97.7569 9.6V9.68C97.7569 10.48 97.5382 11.0933 97.1009 11.52C96.6742 11.9467 96.0395 12.16 95.1969 12.16H93.2769C92.4342 12.16 91.7942 11.9467 91.3569 11.52C90.9302 11.0933 90.7169 10.48 90.7169 9.68V6.16C90.7169 5.36 90.9302 4.74667 91.3569 4.32C91.7942 3.89333 92.4342 3.68 93.2769 3.68H95.1969C96.0395 3.68 96.6742 3.89333 97.1009 4.32C97.5382 4.74667 97.7569 5.36 97.7569 6.16V8.24C97.7569 8.4 97.6769 8.48 97.5169 8.48H92.0769Z" fill="#1B1C21"/>
</svg>
